<svg width="22" height="20" viewBox="0 0 22 20" fill="none" xmlns="http://www.w3.org/2000/svg">
<path d="M20.6384 3.42437L16.5446 7.14601L16.5553 7.17857L19.6642 17.5816C19.7174 17.8089 19.711 18.0444 19.6453 18.269C19.5797 18.4936 19.4567 18.7009 19.2864 18.8742L18.2602 19.8071C18.1938 19.8775 18.109 19.9316 18.0136 19.9644C17.9181 19.9972 17.8152 20.0075 17.7141 19.9946C17.6131 19.9816 17.5173 19.9457 17.4356 19.8901C17.3539 19.8346 17.2889 19.7612 17.2466 19.6768L13.0417 12.7578L11.7076 11.5433L8.17962 14.7505C7.77526 15.0785 7.32335 15.3546 6.8365 15.571L7.62446 17.9267C7.68425 18.1513 7.68305 18.3857 7.62097 18.6098C7.55888 18.8339 7.43777 19.0408 7.26809 19.2129L6.95469 19.4994C6.79468 19.6437 6.5784 19.7247 6.35297 19.7247C6.12755 19.7247 5.91126 19.6437 5.75125 19.4994L3.88879 17.8079L3.85655 17.7753L2.44538 16.4957L2.40956 16.4631L0.550677 14.7716C0.391886 14.6262 0.302781 14.4296 0.302781 14.2246C0.302781 14.0197 0.391886 13.8231 0.550677 13.6776L0.865863 13.3911C1.05543 13.2374 1.28325 13.1279 1.52971 13.072C1.77616 13.0161 2.03387 13.0156 2.28062 13.0704L4.87195 13.7834C5.11023 13.341 5.4139 12.9302 5.77453 12.5624L9.30247 9.35523L7.96651 8.14399L0.355476 4.32141C0.262627 4.28297 0.181933 4.22387 0.120847 4.14959C0.0597605 4.0753 0.0202534 3.98822 0.00597496 3.89638C-0.00830347 3.80455 0.0031072 3.71092 0.039153 3.62415C0.0751988 3.53739 0.134717 3.46028 0.212209 3.39995L1.23836 2.4671C1.42906 2.31238 1.65716 2.20065 1.90419 2.14097C2.15122 2.0813 2.41024 2.07534 2.66028 2.12359L14.1037 4.94982L14.1395 4.95959L18.2333 1.23795C18.896 0.632325 21.1363 -0.422628 21.8025 0.179737C22.4651 0.785359 21.3028 2.82038 20.6384 3.42437Z" fill="#3B82F6"/>
</svg>
