<svg width="29" height="32" viewBox="0 0 29 32" fill="none" xmlns="http://www.w3.org/2000/svg">
<path d="M26.5335 27.9981C25.0501 29.982 23.4773 31.9179 21.0823 31.9499C18.6873 31.9979 17.9188 30.686 15.2021 30.686C12.4675 30.686 11.6275 31.9179 9.35755 31.9979C7.01619 32.0779 5.24677 29.886 3.74544 27.9501C0.689164 23.9984 -1.6522 16.7189 1.49345 11.8232C3.0484 9.39138 5.83658 7.85548 8.85711 7.80748C11.1449 7.77548 13.3254 9.19939 14.7374 9.19939C16.1315 9.19939 18.7767 7.4875 21.547 7.74349C22.7087 7.79148 25.9616 8.15946 28.0527 10.9113C27.8919 11.0073 24.1743 12.9591 24.21 17.0069C24.2637 21.8385 28.9464 23.4544 29 23.4704C28.9464 23.5824 28.2493 25.7743 26.5335 27.9981ZM16.3281 2.39984C17.6328 1.07193 19.7954 0.0639957 21.5827 0C21.8151 1.87188 20.975 3.75975 19.7239 5.10366C18.4907 6.46357 16.4532 7.5195 14.4514 7.37551C14.1833 5.53563 15.1842 3.61576 16.3281 2.39984Z" fill="white"/>
</svg>
