<svg width="15" height="20" viewBox="0 0 15 20" fill="none" xmlns="http://www.w3.org/2000/svg">
<path d="M13.125 6.25H1.875C0.839453 6.25 0 7.08945 0 8.125V16.875C0 17.9105 0.839453 18.75 1.875 18.75H2.5V19.375C2.5 19.7203 2.77969 20 3.125 20H4.375C4.72031 20 5 19.7203 5 19.375V18.75H10V19.375C10 19.7203 10.2797 20 10.625 20H11.875C12.2203 20 12.5 19.7203 12.5 19.375V18.75H13.125C14.1605 18.75 15 17.9105 15 16.875V8.125C15 7.08945 14.1605 6.25 13.125 6.25ZM12.5 14.6875C12.5 14.8602 12.3602 15 12.1875 15H2.8125C2.63984 15 2.5 14.8602 2.5 14.6875V14.0625C2.5 13.8898 2.63984 13.75 2.8125 13.75H12.1875C12.3602 13.75 12.5 13.8898 12.5 14.0625V14.6875ZM12.5 10.9375C12.5 11.1102 12.3602 11.25 12.1875 11.25H2.8125C2.63984 11.25 2.5 11.1102 2.5 10.9375V10.3125C2.5 10.1398 2.63984 10 2.8125 10H12.1875C12.3602 10 12.5 10.1398 12.5 10.3125V10.9375ZM5.625 1.875H9.375V5H11.25V1.875C11.25 0.839453 10.4105 0 9.375 0H5.625C4.58945 0 3.75 0.839453 3.75 1.875V5H5.625V1.875Z" fill="#2F64ED"/>
</svg>
