<svg width="15" height="16" viewBox="0 0 15 16" fill="none" xmlns="http://www.w3.org/2000/svg">
<path d="M14.0675 12.1835C12.9605 11.1755 12.2645 9.733 12.25 8.1275V8.125C12.25 3.956 10.0215 1.872 7.75 1.55V0.625C7.75 0.28 7.47 0 7.125 0C6.78 0 6.5 0.28 6.5 0.625V1.55C4.229 1.872 2 3.9565 2 8.125C1.976 9.7305 1.283 11.1695 0.188 12.179L0.184 12.1825C0.0705 12.2955 0 12.452 0 12.625C0 12.97 0.2795 13.25 0.625 13.25H4.5835C4.87 14.4065 5.899 15.25 7.125 15.25C8.351 15.25 9.38 14.4065 9.6625 13.268L9.6665 13.25H13.625C13.97 13.25 14.25 12.97 14.25 12.625C14.25 12.4525 14.1805 12.2965 14.0675 12.1835ZM7.125 14C6.596 13.998 6.138 13.697 5.911 13.2575L5.9075 13.25H8.343C8.112 13.697 7.6535 13.998 7.125 14ZM1.9795 12C2.773 10.9315 3.25 9.5865 3.25 8.1305C3.25 8.1285 3.25 8.127 3.25 8.125C3.25 4.432 5.259 2.7505 7.125 2.7505C8.1815 2.7645 9.1205 3.2575 9.736 4.022L9.741 4.0285C10.5315 5.0655 11.0075 6.3795 11.0075 7.8045C11.0075 7.914 11.0045 8.0235 10.999 8.1315L10.9995 8.1165C10.9995 8.1375 10.999 8.1625 10.999 8.187C10.999 9.625 11.4765 10.9515 12.2815 12.0165L12.27 12.0005L1.9795 12Z" fill="#2563EB"/>
</svg>
