<svg width="20" height="12" viewBox="0 0 20 12" fill="none" xmlns="http://www.w3.org/2000/svg">
<path d="M5 5V7H15V5C15 3.89687 15.8969 3 17 3H18C18 1.34375 16.6562 0 15 0H5C3.34375 0 2 1.34375 2 3H3C4.10313 3 5 3.89687 5 5ZM18 4H17C16.4469 4 16 4.44688 16 5V8H4V5C4 4.44688 3.55312 4 3 4H2C0.896875 4 0 4.89687 0 6C0 6.7375 0.40625 7.375 1 7.72188V11.5C1 11.775 1.225 12 1.5 12H3.5C3.775 12 4 11.775 4 11.5V11H16V11.5C16 11.775 16.225 12 16.5 12H18.5C18.775 12 19 11.775 19 11.5V7.72188C19.5938 7.375 20 6.7375 20 6C20 4.89687 19.1031 4 18 4Z" fill="#F97316"/>
</svg>
