<svg width="20" height="20" viewBox="0 0 20 20" fill="none" xmlns="http://www.w3.org/2000/svg">
<path d="M10 0C4.48617 0 0 4.48617 0 10C0 15.5142 4.48617 20 10 20C15.5142 20 20 15.5142 20 10C20 4.48617 15.5142 0 10 0ZM10 19.2308C4.91041 19.2308 0.769223 15.0896 0.769223 10C0.769223 4.91036 4.91036 0.769223 10 0.769223C15.0896 0.769223 19.2308 4.91036 19.2308 10C19.2308 15.0896 15.0896 19.2308 10 19.2308Z" fill="white"/>
<path d="M10.1662 2.94885H9.39697V10.3846H14.2727V9.61536H10.1662V2.94885Z" fill="white"/>
</svg>
