<svg width="14" height="14" viewBox="0 0 14 14" fill="none" xmlns="http://www.w3.org/2000/svg">
<path d="M7 0C5.61553 0 4.26216 0.410543 3.11101 1.17971C1.95987 1.94888 1.06266 3.04213 0.532846 4.32122C0.00303299 5.6003 -0.13559 7.00776 0.134506 8.36563C0.404603 9.7235 1.07129 10.9708 2.05026 11.9497C3.02922 12.9287 4.2765 13.5954 5.63437 13.8655C6.99224 14.1356 8.3997 13.997 9.67879 13.4672C10.9579 12.9373 12.0511 12.0401 12.8203 10.889C13.5895 9.73785 14 8.38447 14 7C13.998 5.14409 13.2599 3.36475 11.9476 2.05242C10.6353 0.740087 8.85592 0.00195988 7 0ZM7.53846 12.8982V8.61538H9.15385C9.29666 8.61538 9.43362 8.55865 9.5346 8.45767C9.63558 8.35669 9.69231 8.21973 9.69231 8.07692C9.69231 7.93411 9.63558 7.79715 9.5346 7.69617C9.43362 7.59519 9.29666 7.53846 9.15385 7.53846H7.53846V5.92308C7.53846 5.63746 7.65192 5.36354 7.85389 5.16158C8.05585 4.95961 8.32977 4.84615 8.61539 4.84615H9.69231C9.83512 4.84615 9.97208 4.78942 10.0731 4.68844C10.174 4.58746 10.2308 4.4505 10.2308 4.30769C10.2308 4.16488 10.174 4.02792 10.0731 3.92694C9.97208 3.82596 9.83512 3.76923 9.69231 3.76923H8.61539C8.04415 3.76923 7.49631 3.99615 7.09239 4.40008C6.68846 4.804 6.46154 5.35184 6.46154 5.92308V7.53846H4.84616C4.70335 7.53846 4.56639 7.59519 4.46541 7.69617C4.36443 7.79715 4.30769 7.93411 4.30769 8.07692C4.30769 8.21973 4.36443 8.35669 4.46541 8.45767C4.56639 8.55865 4.70335 8.61538 4.84616 8.61538H6.46154V12.8982C4.94361 12.7596 3.53754 12.0412 2.53578 10.8924C1.53402 9.74356 1.01371 8.25277 1.08306 6.73011C1.15242 5.20745 1.8061 3.77014 2.90815 2.71715C4.0102 1.66416 5.47576 1.07655 7 1.07655C8.52424 1.07655 9.98981 1.66416 11.0919 2.71715C12.1939 3.77014 12.8476 5.20745 12.9169 6.73011C12.9863 8.25277 12.466 9.74356 11.4642 10.8924C10.4625 12.0412 9.05639 12.7596 7.53846 12.8982Z" fill="#D1D5DB"/>
</svg>
