<svg width="18" height="16" viewBox="0 0 18 16" fill="none" xmlns="http://www.w3.org/2000/svg">
<path d="M8.99994 13.9354C10.7608 13.9354 12.1935 12.5027 12.1935 10.7419C12.1935 8.98108 10.7608 7.54834 8.99994 7.54834C7.23914 7.54834 5.8064 8.98108 5.8064 10.7419C5.8064 12.5027 7.23914 13.9354 8.99994 13.9354ZM8.99994 8.12898C10.4405 8.12898 11.6128 9.30102 11.6128 10.7419C11.6128 12.1828 10.4405 13.3548 8.99994 13.3548C7.55936 13.3548 6.38704 12.1828 6.38704 10.7419C6.38704 9.30102 7.55936 8.12898 8.99994 8.12898Z" fill="#FF6600"/>
<path d="M9.29036 5.8064H8.70972V6.96769H9.29036V5.8064Z" fill="#FF6600"/>
<path d="M7.36407 7.32889L6.78345 6.32324L6.28061 6.61356L6.86124 7.61921L7.36407 7.32889Z" fill="#FF6600"/>
<path d="M4.58054 8.52631L5.58618 9.10693L5.8765 8.60409L4.87086 8.02347L4.58054 8.52631Z" fill="#FF6600"/>
<path d="M5.22574 10.4517H4.06445V11.0323H5.22574V10.4517Z" fill="#FF6600"/>
<path d="M4.58083 12.9577L4.87109 13.4606L5.87689 12.88L5.58662 12.3771L4.58083 12.9577Z" fill="#FF6600"/>
<path d="M6.2825 14.8704L6.7854 15.1606L7.36593 14.1549L6.86303 13.8646L6.2825 14.8704Z" fill="#FF6600"/>
<path d="M9.29036 14.5161H8.70972V15.6774H9.29036V14.5161Z" fill="#FF6600"/>
<path d="M10.6362 14.1566L11.2168 15.1622L11.7196 14.8719L11.139 13.8663L10.6362 14.1566Z" fill="#FF6600"/>
<path d="M12.123 12.8819L13.1287 13.4625L13.419 12.9597L12.4133 12.3791L12.123 12.8819Z" fill="#FF6600"/>
<path d="M13.9355 10.4517H12.7742V11.0323H13.9355V10.4517Z" fill="#FF6600"/>
<path d="M13.4194 8.52597L13.1292 8.02307L12.1234 8.6036L12.4136 9.1065L13.4194 8.52597Z" fill="#FF6600"/>
<path d="M11.2159 5.74179L10.6353 6.74744L11.1381 7.03776L11.7187 6.03211L11.2159 5.74179Z" fill="#FF6600"/>
<path d="M15.0233 4.10429C14.6238 1.74861 12.573 0 10.1613 0C7.97806 0 6.075 1.42374 5.44529 3.49374C4.47532 3.40839 3.57619 3.86652 3.05361 4.64835C1.35726 4.72181 0 6.12465 0 7.83871C0 9.59952 1.43274 11.0323 3.19355 11.0323H3.48387V10.4516H3.19355C1.75297 10.4516 0.580645 9.27958 0.580645 7.83871C0.580645 6.39784 1.75297 5.22581 3.18223 5.22552L3.38313 5.22697L3.46703 5.0821C3.83023 4.45442 4.50406 4.06452 5.22581 4.06452C5.34745 4.06452 5.47461 4.077 5.60381 4.1011L5.87323 4.1519L5.93942 3.88568C6.42194 1.93994 8.15806 0.580645 10.1613 0.580645C12.357 0.580645 14.2139 2.22387 14.4801 4.40274L14.5089 4.63848L14.7455 4.65706C16.245 4.77435 17.4194 6.04452 17.4194 7.54839C17.4194 9.14923 16.117 10.4516 14.5161 10.4516V11.0323C16.4372 11.0323 18 9.46945 18 7.54839C18 5.82213 16.7104 4.35223 15.0233 4.10429Z" fill="#FF6600"/>
</svg>
