<svg width="14" height="14" viewBox="0 0 14 14" fill="none" xmlns="http://www.w3.org/2000/svg">
<path d="M7 3.76923C6.36101 3.76923 5.73638 3.95871 5.20508 4.31371C4.67378 4.66872 4.25969 5.17329 4.01516 5.76364C3.77063 6.35398 3.70665 7.00358 3.83131 7.63029C3.95597 8.257 4.26367 8.83267 4.7155 9.2845C5.16733 9.73633 5.743 10.044 6.36971 10.1687C6.99642 10.2934 7.64602 10.2294 8.23636 9.98484C8.82671 9.74031 9.33129 9.32622 9.68629 8.79492C10.0413 8.26362 10.2308 7.63899 10.2308 7C10.2299 6.14342 9.88921 5.32218 9.28352 4.71649C8.67782 4.11079 7.85658 3.77012 7 3.76923ZM7 9.15385C6.57401 9.15385 6.15759 9.02753 5.80339 8.79086C5.44919 8.55419 5.17313 8.2178 5.01011 7.82424C4.84709 7.43068 4.80443 6.99761 4.88754 6.57981C4.97065 6.162 5.17578 5.77822 5.477 5.477C5.77822 5.17578 6.162 4.97065 6.57981 4.88754C6.99761 4.80443 7.43068 4.84709 7.82424 5.01011C8.2178 5.17313 8.55419 5.44919 8.79086 5.80339C9.02753 6.15759 9.15385 6.57401 9.15385 7C9.15385 7.57124 8.92692 8.11907 8.523 8.523C8.11907 8.92692 7.57124 9.15385 7 9.15385ZM10.2308 0H3.76923C2.7699 0.001069 1.8118 0.398527 1.10516 1.10516C0.398527 1.8118 0.001069 2.7699 0 3.76923V10.2308C0.001069 11.2301 0.398527 12.1882 1.10516 12.8948C1.8118 13.6015 2.7699 13.9989 3.76923 14H10.2308C11.2301 13.9989 12.1882 13.6015 12.8948 12.8948C13.6015 12.1882 13.9989 11.2301 14 10.2308V3.76923C13.9989 2.7699 13.6015 1.8118 12.8948 1.10516C12.1882 0.398527 11.2301 0.001069 10.2308 0ZM12.9231 10.2308C12.9231 10.9448 12.6394 11.6296 12.1345 12.1345C11.6296 12.6394 10.9448 12.9231 10.2308 12.9231H3.76923C3.05519 12.9231 2.37039 12.6394 1.86548 12.1345C1.36058 11.6296 1.07692 10.9448 1.07692 10.2308V3.76923C1.07692 3.05519 1.36058 2.37039 1.86548 1.86548C2.37039 1.36058 3.05519 1.07692 3.76923 1.07692H10.2308C10.9448 1.07692 11.6296 1.36058 12.1345 1.86548C12.6394 2.37039 12.9231 3.05519 12.9231 3.76923V10.2308ZM11.3077 3.5C11.3077 3.65975 11.2603 3.81591 11.1716 3.94873C11.0828 4.08155 10.9567 4.18508 10.8091 4.24621C10.6615 4.30734 10.4991 4.32334 10.3424 4.29217C10.1858 4.26101 10.0418 4.18408 9.92888 4.07113C9.81592 3.95817 9.73899 3.81425 9.70783 3.65757C9.67666 3.5009 9.69266 3.3385 9.75379 3.19091C9.81492 3.04332 9.91845 2.91718 10.0513 2.82843C10.1841 2.73968 10.3403 2.69231 10.5 2.69231C10.7142 2.69231 10.9197 2.7774 11.0711 2.92888C11.2226 3.08035 11.3077 3.28579 11.3077 3.5Z" fill="#D1D5DB"/>
</svg>
