<svg width="17" height="17" viewBox="0 0 17 17" fill="none" xmlns="http://www.w3.org/2000/svg">
<path d="M15 8.0625C15 11.8939 11.8939 15 8.0625 15V16.125C12.5153 16.125 16.125 12.5153 16.125 8.0625H15ZM8.0625 15C4.23103 15 1.125 11.8939 1.125 8.0625H0C0 12.5153 3.6097 16.125 8.0625 16.125V15ZM1.125 8.0625C1.125 4.23103 4.23103 1.125 8.0625 1.125V0C3.6097 0 0 3.6097 0 8.0625H1.125ZM10.6875 9.75C8.3058 9.75 6.375 7.8192 6.375 5.4375H5.25C5.25 8.44057 7.68442 10.875 10.6875 10.875V9.75ZM14.3815 7.66425C13.6254 8.91547 12.2536 9.75 10.6875 9.75V10.875C12.6637 10.875 14.393 9.82042 15.3444 8.24603L14.3815 7.66425ZM6.375 5.4375C6.375 3.87136 7.20952 2.4996 8.46075 1.7435L7.87897 0.780637C6.30457 1.73197 5.25 3.46132 5.25 5.4375H6.375ZM8.0625 1.125C7.99612 1.125 7.91827 1.09506 7.8618 1.03626C7.81395 0.986452 7.80285 0.93933 7.80022 0.920272C7.79707 0.896902 7.79865 0.829177 7.87897 0.780637L8.46075 1.7435C8.83815 1.51549 8.9595 1.09798 8.9151 0.769702C8.86905 0.428445 8.59995 0 8.0625 0V1.125ZM15.3444 8.24603C15.2958 8.32635 15.2281 8.32792 15.2047 8.32477C15.1857 8.32215 15.1385 8.31105 15.0887 8.2632C15.0299 8.20672 15 8.12887 15 8.0625H16.125C16.125 7.52505 15.6965 7.25595 15.3553 7.2099C15.027 7.1655 14.6095 7.28685 14.3815 7.66425L15.3444 8.24603Z" fill="#1C274C"/>
</svg>
