<svg width="17" height="20" viewBox="0 0 17 20" fill="none" xmlns="http://www.w3.org/2000/svg">
<path d="M12.9182 0H6.27309H5.75816L5.3943 0.363828L0.363828 5.39461L0 5.75844V6.27312V16.6448C0 18.4948 1.505 20 3.35531 20H12.9182C14.768 20 16.273 18.4948 16.273 16.6448V3.35531C16.273 1.505 14.768 0 12.9182 0ZM15.0309 16.6447C15.0309 17.8118 14.085 18.7577 12.9182 18.7577H3.35531C2.18797 18.7577 1.24211 17.8118 1.24211 16.6447V6.27309H4.51227C5.48434 6.27309 6.27309 5.48488 6.27309 4.51254V1.24234H12.9182C14.085 1.24234 15.0309 2.1882 15.0309 3.35531V16.6447Z" fill="#9CA3AF"/>
<path d="M4.85313 9.87439H3.73871C3.52652 9.87439 3.39941 10.0124 3.39941 10.2191V13.1001C3.39941 13.3497 3.56363 13.5142 3.79164 13.5142C4.01473 13.5142 4.17891 13.3497 4.17891 13.1001V12.2249C4.17891 12.2036 4.1898 12.193 4.21109 12.193H4.85313C5.63809 12.193 6.11047 11.7154 6.11047 11.0363C6.11051 10.3465 5.64355 9.87439 4.85313 9.87439ZM4.80516 11.519H4.21109C4.1898 11.519 4.17891 11.5084 4.17891 11.4874V10.58C4.17891 10.5587 4.1898 10.5481 4.21109 10.5481H4.80516C5.13406 10.5481 5.33043 10.7445 5.33043 11.0363C5.33047 11.3281 5.13406 11.519 4.80516 11.519Z" fill="#9CA3AF"/>
<path d="M7.90934 9.87439H7.05512C6.84293 9.87439 6.71582 10.0124 6.71582 10.2191V13.1427C6.71582 13.3497 6.84289 13.4822 7.05512 13.4822H7.90934C8.67848 13.4822 9.15633 13.2381 9.34723 12.6493C9.41598 12.4422 9.45359 12.193 9.45359 11.6783C9.45359 11.1636 9.41594 10.9144 9.34723 10.7074C9.15629 10.1185 8.67848 9.87439 7.90934 9.87439ZM8.59937 12.3787C8.50883 12.6651 8.24918 12.7873 7.88805 12.7873H7.5275C7.50621 12.7873 7.49531 12.7767 7.49531 12.7554V10.6013C7.49531 10.58 7.50621 10.5694 7.5275 10.5694H7.88805C8.24918 10.5694 8.50883 10.6915 8.59937 10.9779C8.63648 11.1001 8.66266 11.3123 8.66266 11.6783C8.66266 12.0444 8.63644 12.2565 8.59937 12.3787Z" fill="#9CA3AF"/>
<path d="M12.2446 9.87439H10.4941C10.282 9.87439 10.1543 10.0124 10.1543 10.2191V13.1001C10.1543 13.3497 10.3191 13.5142 10.5471 13.5142C10.7696 13.5142 10.9343 13.3497 10.9343 13.1001V12.0708C10.9343 12.0498 10.9447 12.0392 10.966 12.0392H11.985C12.213 12.0392 12.3455 11.9012 12.3455 11.7048C12.3455 11.5084 12.213 11.3707 11.985 11.3707H10.966C10.9447 11.3707 10.9343 11.3601 10.9343 11.3388V10.58C10.9343 10.5587 10.9447 10.5481 10.966 10.5481H12.2446C12.4623 10.5481 12.6057 10.4049 12.6057 10.214C12.6057 10.0176 12.4622 9.87439 12.2446 9.87439Z" fill="#9CA3AF"/>
</svg>
