<svg width="16" height="16" viewBox="0 0 16 16" fill="none" xmlns="http://www.w3.org/2000/svg">
<path d="M0 7.19997H7.2V0H0V7.19997ZM1.6 1.59999H5.6V5.59998H1.6V1.59999Z" fill="white"/>
<path d="M0 15.9999H7.2V8.79993H0V15.9999ZM1.6 10.3999H5.6V14.3999H1.6V10.3999Z" fill="white"/>
<path d="M8.80029 0V7.19997H16.0003V0H8.80029ZM14.4003 5.59998H10.4003V1.59999H14.4003V5.59998Z" fill="white"/>
<path d="M4.40029 2.79993H2.80029V4.39992H4.40029V2.79993Z" fill="white"/>
<path d="M10.4003 11.6H8.80029V16H16.0003V14.4H10.4003V11.6Z" fill="white"/>
<path d="M14.4001 11.5999H11.6001V13.1999H16.0001V8.79993H14.4001V11.5999Z" fill="white"/>
<path d="M13.2003 8.79993H8.80029V10.3999H13.2003V8.79993Z" fill="white"/>
</svg>
