<svg width="20" height="20" viewBox="0 0 20 20" fill="none" xmlns="http://www.w3.org/2000/svg">
<path d="M19.5873 0.418089C19.4077 0.238566 19.1833 0.110178 18.9375 0.046148C18.6917 -0.0178817 18.4332 -0.0152375 18.1888 0.0538081H18.1754L1.03324 5.25374C0.754947 5.33392 0.507594 5.49675 0.32396 5.72065C0.140325 5.94454 0.0290791 6.21894 0.00496336 6.50747C-0.0191524 6.79601 0.0450007 7.08506 0.188921 7.33631C0.332842 7.58757 0.549735 7.78918 0.81086 7.91442L8.39505 11.6072L12.0835 19.1848C12.1983 19.4296 12.3807 19.6364 12.6092 19.7808C12.8377 19.9253 13.1028 20.0013 13.3732 20C13.4143 20 13.4553 19.9982 13.4964 19.9946C13.7848 19.9713 14.0591 19.8603 14.2826 19.6766C14.5061 19.4929 14.6681 19.2453 14.7468 18.967L19.9446 1.82968C19.9446 1.82521 19.9446 1.82075 19.9446 1.81629C20.0145 1.57251 20.0183 1.3145 19.9555 1.06878C19.8928 0.823051 19.7657 0.598465 19.5873 0.418089ZM13.3812 18.558L13.3767 18.5705V18.5643L9.799 11.2162L14.0859 6.93051C14.2142 6.79546 14.2847 6.61564 14.2823 6.42939C14.2799 6.24313 14.2048 6.06518 14.0731 5.93346C13.9413 5.80175 13.7633 5.7267 13.577 5.72431C13.3907 5.72193 13.2109 5.7924 13.0758 5.9207L8.7889 10.2064L1.43603 6.62962H1.42978H1.44228L18.5764 1.42879L13.3812 18.558Z" fill="#D1D5DB"/>
</svg>
