<svg width="18" height="15" viewBox="0 0 18 15" fill="none" xmlns="http://www.w3.org/2000/svg">
<path d="M17.55 13.125H0.45C0.201375 13.125 0 13.3348 0 13.5938V14.5313C0 14.7902 0.201375 15 0.45 15H17.55C17.7986 15 18 14.7902 18 14.5313V13.5938C18 13.3348 17.7986 13.125 17.55 13.125ZM1.26028 6.02521L3.75609 8.36896C3.96088 8.56157 4.20626 8.70137 4.47244 8.77706L12.5612 11.0725C13.3059 11.2837 14.0957 11.3279 14.8393 11.1123C15.6738 10.87 16.0611 10.4909 16.1682 10.0661C16.2759 9.64132 16.1196 9.10782 15.5109 8.45597C14.9687 7.8753 14.2636 7.49532 13.5188 7.28409L10.7764 6.50597L7.95375 0.885373C7.91128 0.715159 7.78641 0.582151 7.62581 0.536448L5.79516 0.017015C5.49816 -0.0673598 5.20734 0.172874 5.21269 0.498655L6.56044 5.30949L3.68606 4.49386L2.91009 2.50519C2.85581 2.36193 2.74106 2.25412 2.60016 2.21428L1.48275 1.89699C1.19194 1.81438 0.905344 2.04348 0.9 2.36223L0.906469 5.34406C0.911812 5.60509 1.07606 5.85206 1.26028 6.02521Z" fill="#888888"/>
</svg>
