<svg width="18" height="17" viewBox="0 0 18 17" fill="none" xmlns="http://www.w3.org/2000/svg">
<path d="M9.72368 0.721672C9.72368 0.331797 9.39096 0 9.00004 0C8.60908 0 8.27636 0.331797 8.27636 0.721672V2.46358C8.27636 2.85346 8.60908 3.18525 9.00004 3.18525C9.39096 3.18525 9.72368 2.85346 9.72368 2.46358V0.721672ZM13.1091 3.88201C12.8346 4.16404 12.8346 4.62856 13.1091 4.90232C13.3919 5.18432 13.8494 5.19263 14.1405 4.90232L15.3799 3.66637C15.6628 3.38433 15.6628 2.91981 15.3799 2.63778C15.1054 2.36406 14.6396 2.36406 14.3568 2.63778L13.1091 3.88201ZM3.85953 4.90232C4.13401 5.18432 4.59982 5.18432 4.88264 4.90232C5.15715 4.63688 5.15715 4.15576 4.89098 3.88201L3.6516 2.63778C3.38542 2.37234 2.91128 2.36406 2.62846 2.63778C2.35398 2.9115 2.35398 3.38433 2.62015 3.65808L3.85953 4.90232ZM9.00004 4.76956C6.67931 4.76956 4.75785 6.6857 4.75785 9C4.75785 11.3143 6.67931 13.2387 9.00004 13.2387C11.3124 13.2387 13.2339 11.3143 13.2339 9C13.2339 6.6857 11.3124 4.76956 9.00004 4.76956ZM9.00004 6.03871C10.622 6.03871 11.9695 7.38249 11.9695 9C11.9695 10.6175 10.622 11.9696 9.00004 11.9696C7.3697 11.9696 6.02218 10.6175 6.02218 9C6.02218 7.38249 7.3697 6.03871 9.00004 6.03871ZM17.2764 9.72164C17.6673 9.72164 18 9.38987 18 9C18 8.61012 17.6673 8.27833 17.2764 8.27833H15.538C15.147 8.27833 14.8143 8.61012 14.8143 9C14.8143 9.38987 15.147 9.72164 15.538 9.72164H17.2764ZM0.723675 8.27833C0.332718 8.27833 0 8.61012 0 9C0 9.38987 0.332718 9.72164 0.723675 9.72164H2.46211C2.85307 9.72164 3.18579 9.38987 3.18579 9C3.18579 8.61012 2.85307 8.27833 2.46211 8.27833H0.723675ZM14.1322 13.106C13.8494 12.8322 13.3919 12.8322 13.1091 13.106C12.8346 13.3797 12.8346 13.8442 13.1091 14.1263L14.3568 15.3705C14.6396 15.6442 15.1054 15.6359 15.3799 15.3622C15.6628 15.0885 15.6628 14.624 15.3799 14.3419L14.1322 13.106ZM2.62015 14.3336C2.33733 14.6074 2.33733 15.0802 2.61185 15.3539C2.88633 15.6277 3.36044 15.6359 3.64325 15.3622L4.88264 14.1263C5.15715 13.8525 5.15715 13.388 4.89098 13.106C4.61646 12.8322 4.14235 12.8322 3.85953 13.106L2.62015 14.3336ZM9.72368 15.5364C9.72368 15.1465 9.39096 14.8147 9.00004 14.8147C8.60908 14.8147 8.27636 15.1465 8.27636 15.5364V17.2783C8.27636 17.6682 8.60908 18 9.00004 18C9.39096 18 9.72368 17.6682 9.72368 17.2783V15.5364Z" fill="#FBBD01"/>
</svg>
