<svg width="14" height="14" viewBox="0 0 14 14" fill="none" xmlns="http://www.w3.org/2000/svg">
<path d="M13.9604 2.11046C13.9212 2.00386 13.8547 1.91275 13.7695 1.84863C13.6842 1.78452 13.584 1.75028 13.4814 1.75026H11.509C11.2333 1.22248 10.8408 0.783955 10.3698 0.477309C9.89879 0.170663 9.36526 0.00633227 8.82108 0.00029422C8.41566 -0.0056879 8.01327 0.0796067 7.63759 0.251159C7.2619 0.422712 6.92052 0.677058 6.63351 0.999232C6.33812 1.32532 6.10367 1.71456 5.94393 2.14406C5.7842 2.57356 5.70242 3.03465 5.70338 3.50022V3.94427C3.09385 3.16991 0.959432 0.781944 0.936746 0.756424C0.867179 0.677472 0.779006 0.622527 0.68261 0.598058C0.586215 0.573589 0.485611 0.580615 0.392646 0.61831C0.299681 0.656004 0.218226 0.722798 0.157875 0.810823C0.0975235 0.898849 0.0607883 1.00444 0.051995 1.11517C-0.227366 4.59978 0.672293 6.93161 1.47797 8.27398C1.87081 8.93757 2.34871 9.53218 2.89616 10.0385C1.909 11.3167 0.35469 11.9883 0.337838 11.9956C0.264668 12.0264 0.198638 12.0754 0.144681 12.139C0.0907231 12.2026 0.0502335 12.279 0.0262373 12.3627C0.00224108 12.4463 -0.00464124 12.535 0.00610438 12.6221C0.01685 12.7091 0.0449457 12.7923 0.0882924 12.8654C0.136905 12.9471 0.331356 13.2337 0.806464 13.5013C1.39371 13.8323 2.16956 14 3.11071 14C7.69132 14 11.5188 10.032 11.9096 4.92644L13.8483 2.74628C13.9208 2.66466 13.9701 2.56068 13.9901 2.4475C14.01 2.33433 13.9997 2.21703 13.9604 2.11046ZM11.0437 4.25489C10.9548 4.35515 10.9013 4.48836 10.8933 4.62968C10.6295 9.22989 7.21232 12.8334 3.11071 12.8334C2.42624 12.8334 1.944 12.7313 1.60566 12.6088C2.3517 12.1531 3.39201 11.3692 4.06092 10.2405C4.10018 10.1741 4.12693 10.0994 4.13952 10.021C4.15211 9.9425 4.15027 9.86197 4.13411 9.78435C4.11795 9.70673 4.08782 9.63366 4.04558 9.56965C4.00334 9.50563 3.94988 9.45204 3.88851 9.41218C3.85805 9.39249 1.0424 7.4916 1.03656 2.41233C2.07364 3.36022 3.96953 4.83092 6.13571 5.24071C6.20995 5.25479 6.28603 5.25051 6.35865 5.22818C6.43128 5.20584 6.49871 5.16599 6.55626 5.11138C6.61381 5.05677 6.66009 4.98872 6.6919 4.91196C6.72371 4.83519 6.74028 4.75156 6.74046 4.66686V3.50022C6.73987 3.18905 6.79462 2.8809 6.90149 2.59389C7.00835 2.30689 7.16516 2.04682 7.3627 1.82901C7.55207 1.61558 7.77754 1.44703 8.02581 1.33331C8.27407 1.2196 8.54008 1.16302 8.80812 1.16694C9.6287 1.1786 10.3955 1.74151 10.7163 2.56764C10.7568 2.6715 10.8233 2.75985 10.9076 2.82188C10.992 2.88391 11.0906 2.91693 11.1914 2.9169H12.2285L11.0437 4.25489Z" fill="#D1D5DB"/>
<path d="M13.9604 2.11046C13.9212 2.00386 13.8547 1.91275 13.7695 1.84863C13.6842 1.78452 13.584 1.75028 13.4814 1.75026H11.509C11.2333 1.22248 10.8408 0.783955 10.3698 0.477309C9.89879 0.170663 9.36526 0.00633227 8.82108 0.00029422C8.41566 -0.0056879 8.01327 0.0796067 7.63759 0.251159C7.2619 0.422712 6.92052 0.677058 6.63351 0.999232C6.33812 1.32532 6.10367 1.71456 5.94393 2.14406C5.7842 2.57356 5.70242 3.03465 5.70338 3.50022V3.94427C3.09385 3.16991 0.959432 0.781944 0.936746 0.756424C0.867179 0.677472 0.779006 0.622527 0.68261 0.598058C0.586215 0.573589 0.485611 0.580615 0.392646 0.61831C0.299681 0.656004 0.218226 0.722798 0.157875 0.810823C0.0975235 0.898849 0.0607883 1.00444 0.051995 1.11517C-0.227366 4.59978 0.672293 6.93161 1.47797 8.27398C1.87081 8.93757 2.34871 9.53218 2.89616 10.0385C1.909 11.3167 0.35469 11.9883 0.337838 11.9956C0.264668 12.0264 0.198638 12.0754 0.144681 12.139C0.0907231 12.2026 0.0502335 12.279 0.0262373 12.3627C0.00224108 12.4463 -0.00464124 12.535 0.00610438 12.6221C0.01685 12.7091 0.0449457 12.7923 0.0882924 12.8654C0.136905 12.9471 0.331356 13.2337 0.806464 13.5013C1.39371 13.8323 2.16956 14 3.11071 14C7.69132 14 11.5188 10.032 11.9096 4.92644L13.8483 2.74628C13.9208 2.66466 13.9701 2.56068 13.9901 2.4475C14.01 2.33433 13.9997 2.21703 13.9604 2.11046ZM11.0437 4.25489C10.9548 4.35515 10.9013 4.48836 10.8933 4.62968C10.6295 9.22989 7.21232 12.8334 3.11071 12.8334C2.42624 12.8334 1.944 12.7313 1.60566 12.6088C2.3517 12.1531 3.39201 11.3692 4.06092 10.2405C4.10018 10.1741 4.12693 10.0994 4.13952 10.021C4.15211 9.9425 4.15027 9.86197 4.13411 9.78435C4.11795 9.70673 4.08782 9.63366 4.04558 9.56965C4.00334 9.50563 3.94988 9.45204 3.88851 9.41218C3.85805 9.39249 1.0424 7.4916 1.03656 2.41233C2.07364 3.36022 3.96953 4.83092 6.13571 5.24071C6.20995 5.25479 6.28603 5.25051 6.35865 5.22818C6.43128 5.20584 6.49871 5.16599 6.55626 5.11138C6.61381 5.05677 6.66009 4.98872 6.6919 4.91196C6.72371 4.83519 6.74028 4.75156 6.74046 4.66686V3.50022C6.73987 3.18905 6.79462 2.8809 6.90149 2.59389C7.00835 2.30689 7.16516 2.04682 7.3627 1.82901C7.55207 1.61558 7.77754 1.44703 8.02581 1.33331C8.27407 1.2196 8.54008 1.16302 8.80812 1.16694C9.6287 1.1786 10.3955 1.74151 10.7163 2.56764C10.7568 2.6715 10.8233 2.75985 10.9076 2.82188C10.992 2.88391 11.0906 2.91693 11.1914 2.9169H12.2285L11.0437 4.25489Z" fill="#D1D5DB" fill-opacity="0.2"/>
</svg>
