<svg width="20" height="24" viewBox="0 0 20 24" fill="none" xmlns="http://www.w3.org/2000/svg">
<path d="M19.3296 18.8096C18.4487 17.2437 17.006 15.4702 14.6572 14.4619C13.3139 15.4017 11.682 15.955 9.92269 15.955C8.16242 15.955 6.5305 15.4017 5.18713 14.4619C2.83841 15.4702 1.39564 17.2438 0.515276 18.8096C-0.65313 20.8864 0.262926 23.8251 2.28364 23.8251C4.30439 23.8251 9.92273 23.8251 9.92273 23.8251C9.92273 23.8251 15.5405 23.8251 17.5613 23.8251C19.582 23.8251 20.498 20.8864 19.3296 18.8096Z" fill="#4B5563"/>
<path d="M9.92267 13.9898C13.3728 13.9898 16.1689 11.1928 16.1689 7.7431V6.24668C16.1689 2.79703 13.3728 0 9.92267 0C6.47199 0 3.67548 2.79703 3.67548 6.24673V7.74315C3.67548 11.1928 6.47204 13.9898 9.92267 13.9898Z" fill="#4B5563"/>
</svg>
